<svg width="58" height="55" viewBox="0 0 58 55" fill="none" xmlns="http://www.w3.org/2000/svg">
<path id="fa-dropbox" d="M11.7834 21.3183L0.0892334 30.6944L17.0424 41.7312L28.8749 31.8707L11.7834 21.3183ZM45.8973 40.5203L40.8113 43.8417L28.9441 34.0158V33.9466L28.9095 33.9812L28.8749 33.9466V34.0158L17.0424 43.8417L11.9564 40.5203V44.2569L28.8749 54.3942V54.4288L28.9095 54.3942L28.9441 54.4288V54.3942L45.8973 44.2569V40.5203ZM17.0424 0.939941L0.0892334 11.9768L11.7834 21.3183L28.8749 10.8004L17.0424 0.939941ZM45.9665 21.3183L28.8749 31.8707L40.7421 41.7312L57.6607 30.6944L45.9665 21.3183ZM40.7421 0.939941L28.8749 10.8004L45.9665 21.3183L57.6607 11.9768L40.7421 0.939941Z" fill="#482BE7"/>
</svg>
