<svg width="58" height="50" viewBox="0 0 58 50" fill="none" xmlns="http://www.w3.org/2000/svg">
<path id="fa-github-alt" d="M22.3528 33.9286C22.3528 31.403 21.0381 27.2858 17.9242 27.2858C14.8104 27.2858 13.4957 31.403 13.4957 33.9286C13.4957 36.4543 14.8104 40.5715 17.9242 40.5715C21.0381 40.5715 22.3528 36.4543 22.3528 33.9286ZM44.4957 33.9286C44.4957 31.403 43.1809 27.2858 40.0671 27.2858C36.9533 27.2858 35.6385 31.403 35.6385 33.9286C35.6385 36.4543 36.9533 40.5715 40.0671 40.5715C43.1809 40.5715 44.4957 36.4543 44.4957 33.9286ZM50.0314 33.9286C50.0314 44.5157 40.3439 46.1418 31.9019 46.1418H26.0894C17.6475 46.1418 7.95996 44.5157 7.95996 33.9286C7.95996 28.6351 11.1776 23.9644 16.8171 23.9644C19.1006 23.9644 21.3149 24.3795 23.5638 24.6909C25.3629 24.9677 27.162 25.0715 28.9957 25.0715C30.8294 25.0715 32.6285 24.9677 34.4276 24.6909C36.7111 24.3795 38.8908 23.9644 41.1742 23.9644C46.8138 23.9644 50.0314 28.6351 50.0314 33.9286ZM57.7814 27.8394C57.7814 22.788 56.3975 17.9789 53.076 14.0693C53.6988 12.201 54.0102 10.2289 54.0102 8.25677C54.0102 5.6619 53.422 3.06703 52.2457 0.714355C46.8484 0.714355 43.3539 3.03243 39.2367 6.25007C36.0883 5.48891 32.8015 5.14292 29.5492 5.14292C25.951 5.14292 22.3528 5.52351 18.8584 6.35386C14.7066 3.10163 11.2122 0.714355 5.74568 0.714355C4.56934 3.06703 3.98117 5.6619 3.98117 8.25677C3.98117 10.2289 4.29255 12.2356 4.91532 14.1385C1.59389 18.0135 0.209961 22.788 0.209961 27.8394C0.209961 31.6798 0.590541 35.7969 2.35505 39.2914C7.09501 48.6329 20.4153 49.4286 29.5492 49.4286C38.5448 49.4286 51.1039 48.5291 55.6709 39.2914C57.4008 35.7623 57.7814 31.6798 57.7814 27.8394Z" fill="#1E0E62"/>
</svg>
